<?xml version="1.0" encoding="UTF-8" standalone="no"?>
<!-- Created with Inkscape (http://www.inkscape.org/) -->

<svg
   xmlns:dc="http://purl.org/dc/elements/1.1/"
   xmlns:cc="http://creativecommons.org/ns#"
   xmlns:rdf="http://www.w3.org/1999/02/22-rdf-syntax-ns#"
   xmlns:svg="http://www.w3.org/2000/svg"
   xmlns="http://www.w3.org/2000/svg"
   xmlns:sodipodi="http://sodipodi.sourceforge.net/DTD/sodipodi-0.dtd"
   xmlns:inkscape="http://www.inkscape.org/namespaces/inkscape"
   width="210mm"
   height="297mm"
   viewBox="0 0 210 297"
   version="1.1"
   id="svg8"
   inkscape:version="0.92.3 (2405546, 2018-03-11)"
   sodipodi:docname="drawing.svg"
   inkscape:export-filename="/home/collin/code/tonepairs/images/icon-512.png"
   inkscape:export-xdpi="90.573601"
   inkscape:export-ydpi="90.573601">
  <defs
     id="defs2" />
  <sodipodi:namedview
     id="base"
     pagecolor="#ffffff"
     bordercolor="#666666"
     borderopacity="1.0"
     inkscape:pageopacity="0.0"
     inkscape:pageshadow="2"
     inkscape:zoom="0.7"
     inkscape:cx="118.00036"
     inkscape:cy="581.38703"
     inkscape:document-units="mm"
     inkscape:current-layer="layer1"
     showgrid="false"
     inkscape:window-width="1920"
     inkscape:window-height="1025"
     inkscape:window-x="0"
     inkscape:window-y="27"
     inkscape:window-maximized="1" />
  <metadata
     id="metadata5">
    <rdf:RDF>
      <cc:Work
         rdf:about="">
        <dc:format>image/svg+xml</dc:format>
        <dc:type
           rdf:resource="http://purl.org/dc/dcmitype/StillImage" />
        <dc:title></dc:title>
      </cc:Work>
    </rdf:RDF>
  </metadata>
  <g
     inkscape:label="Layer 1"
     inkscape:groupmode="layer"
     id="layer1">
    <path
       style="fill:#ffffff;stroke:#000000;stroke-width:0.4460859;stroke-opacity:1"
       d="m 38.175281,167.53103 c -9.482389,-1.58398 -17.549357,-9.48149 -19.321893,-18.91602 -0.359747,-1.9148 -0.464749,-17.27612 -0.368941,-53.976397 l 0.133904,-51.299869 1.00299,-2.659063 c 2.036982,-5.40028 6.139437,-10.217545 11.043328,-12.967507 5.394992,-3.025349 2.537514,-2.886559 59.309628,-2.880704 55.710293,0.0059 53.293543,-0.09666 58.563043,2.481467 1.35039,0.660686 3.83516,2.502995 5.52173,4.094017 3.69689,3.487454 6.26648,8.184787 7.05228,12.891927 0.36713,2.1992 0.47417,17.295969 0.38221,53.908404 l -0.12772,50.853815 -0.97224,2.54341 c -1.46781,3.83983 -3.20177,6.53755 -6.00165,9.33743 -3.11925,3.11924 -8.65602,5.96618 -12.87693,6.62114 -3.58639,0.5565 -99.995384,0.52661 -103.339739,-0.032 z"
       id="path54"
       inkscape:connector-curvature="0" />
    <path
       id="path20"
       d="m 51.255958,44.780443 c -0.0373,1.650055 0.480701,3.17985 1.21507,4.631727 0.679889,1.132636 1.290072,2.279398 1.606529,3.56589 0.27559,0.918215 0.428009,1.856912 0.514003,2.809433 0.08664,0.585949 -0.02307,1.194012 0.128136,1.77128 0.06209,0.23704 0.240747,0.634296 0.334512,0.855196 0.357127,0.928188 0.717733,1.854526 1.024102,2.80098 0.119126,0.465466 0.267581,0.922578 0.408456,1.381707 0,0 -4.908709,2.685778 -4.908709,2.685778 v 0 c -0.136716,-0.457383 -0.292132,-0.9094 -0.400582,-1.374728 -0.298778,-0.93114 -0.644586,-1.84505 -0.999974,-2.755908 -0.430863,-1.005268 -0.593786,-1.68352 -0.551778,-2.783258 -0.06655,-0.929325 -0.198689,-1.847413 -0.466939,-2.742699 -0.266306,-1.255006 -0.848223,-2.373744 -1.499489,-3.473628 -0.755335,-1.523738 -1.305137,-3.112928 -1.3974,-4.827166 0,0 4.994063,-2.544604 4.994063,-2.544604 z"
       inkscape:connector-curvature="0"
       style="stroke-width:0.26458332" />
    <path
       id="path22"
       d="m 29.122364,78.560654 c 3.409765,-2.325111 6.966958,-4.005437 10.80375,-5.381816 3.27828,-1.207127 6.719647,-1.700961 10.177068,-2.033793 2.883186,-0.235559 5.776547,-0.282605 8.667832,-0.291598 2.081665,-0.04404 4.165478,-0.0011 6.208964,0.42154 1.22886,0.33909 2.471467,0.557281 3.74125,0.650359 1.293993,0.06777 2.590475,0.0656 3.885851,0.06154 1.197189,-0.0034 2.394392,-0.0081 3.591594,-0.0074 1.547474,0.0047 3.094953,0.0082 4.642433,0.01199 1.670346,0.0027 3.340682,-0.0035 5.01102,-0.0073 0.884917,-0.0037 0.453414,-0.0016 1.294514,-0.0059 0,0 -4.508387,3.275526 -4.508387,3.275526 v 0 c -0.829998,-0.0042 -0.403931,-0.0021 -1.278202,-0.0059 -1.663639,-0.0038 -3.327275,-0.01008 -4.990922,-0.0072 -1.559571,0.004 -3.119141,0.0075 -4.678699,0.01519 -1.196401,0.0038 -2.392828,0.0052 -3.589221,0.004 -1.306221,-0.0069 -2.61429,-6.4e-5 -3.917783,-0.0971 -1.270728,-0.126457 -2.506557,-0.397743 -3.740769,-0.723352 -2.011596,-0.370295 -4.055406,-0.392195 -6.096275,-0.368776 -2.858821,0.0122 -5.721107,0.03241 -8.571103,0.284702 -3.452688,0.352978 -6.876746,0.922703 -10.133767,2.173557 -1.241427,0.468712 -2.48504,0.938845 -3.689948,1.49737 -1.821145,0.84418 -5.561864,3.180739 2.393519,-1.491419 0,0 -5.222719,2.025816 -5.222719,2.025816 z"
       inkscape:connector-curvature="0"
       style="stroke-width:0.26458332" />
    <path
       id="path24"
       d="m 34.697678,88.382852 c 1.695682,-0.709012 3.412103,-1.353812 5.146666,-1.962031 2.198191,-0.878348 4.538875,-1.166958 6.859995,-1.508582 2.214269,-0.242872 4.427646,-0.491477 6.649458,-0.657114 1.87633,-0.119399 3.756684,-0.1518 5.636168,-0.179258 1.256908,-0.0082 2.513795,-0.0068 3.770706,-0.0056 1.042535,-0.0016 2.085063,-7.94e-4 3.127595,-0.0034 0.945197,-0.07396 1.864423,0.07687 2.795926,0.201891 0.88288,0.139499 1.70542,0.482706 2.563701,0.704929 0.830043,0.147923 1.663597,0.217575 2.494227,0.363786 0.907037,0.163362 1.828634,0.202642 2.747852,0.228696 0.902811,0.01955 1.805871,0.0163 2.708822,0.01386 0.851083,5.29e-4 1.474428,0.54366 2.221357,0.857517 0.701742,0.201708 1.434349,0.248534 2.160411,0.271838 0.08879,0.03055 0.17758,0.06111 0.266369,0.09166 0,0 -4.630473,3.204712 -4.630473,3.204712 v 0 c -0.06785,-0.006 -0.135707,-0.01198 -0.20356,-0.01797 -0.770181,-0.06445 -1.549823,-0.151479 -2.270635,-0.448397 -0.677455,-0.332034 -1.280459,-0.728689 -2.07472,-0.667046 -0.906203,-0.0021 -1.812817,-7.94e-4 -2.718541,-0.03324 -0.934244,-0.04445 -1.868228,-0.112419 -2.788544,-0.287978 -0.84623,-0.135305 -1.709833,-0.170907 -2.537283,-0.410099 -0.825315,-0.25645 -1.645594,-0.530447 -2.507334,-0.64494 -0.916141,-0.121719 -1.828612,-0.179366 -2.753958,-0.140843 -1.037397,-0.0032 -2.074794,-0.0037 -3.112183,-0.0086 -1.250272,-0.0024 -2.500574,-0.0083 -3.750836,-0.0013 -1.856743,0.0076 -3.714295,0.03938 -5.566865,0.174119 -2.215666,0.17253 -4.425183,0.420129 -6.6309,0.689317 -2.30486,0.325355 -4.603335,0.706424 -6.776421,1.58392 -1.762059,0.647287 -3.511437,1.32258 -5.243005,2.047266 0,0 4.416005,-3.457067 4.416005,-3.457067 z"
       inkscape:connector-curvature="0"
       style="stroke-width:0.26458332" />
    <path
       id="path26"
       d="m 36.64972,99.936936 c 1.73204,0.03356 3.464674,0.02944 5.196986,0.02894 1.755762,0.117814 3.472897,-0.233202 5.198102,-0.499121 1.407665,-0.359341 2.688749,0.07212 4.039185,0.421717 0.99668,0.277378 2.021969,0.373518 3.051018,0.418408 0.974217,0.027 1.948979,0.0221 2.923474,0.0228 1.186905,-0.004 2.3738,-0.002 3.560707,-10e-4 1.275302,-2.3e-4 2.550605,10e-4 3.825902,-0.003 1.138748,-0.008 2.27749,0.002 3.416244,0.002 1.190527,-7.9e-4 2.381033,-5.3e-4 3.571555,-0.005 0.966819,-8e-4 1.933662,-0.005 2.900484,-0.002 0.923541,-0.002 1.847072,-10e-4 2.770611,-5.3e-4 0.827254,-0.0561 1.685091,0.10714 2.497124,-0.0795 1.674752,-0.478389 5.632878,-3.027938 -4.042489,2.38375 -0.06991,0.0391 0.136458,-0.0866 0.192595,-0.14373 0.06298,-0.0641 0.107363,-0.14417 0.161044,-0.21625 0,0 5.165146,-2.23164 5.165146,-2.23164 v 0 c -0.0532,0.0733 -0.114756,0.14115 -0.15961,0.21981 -0.05276,0.0925 -0.0414,0.23465 -0.131723,0.29107 -2.559399,1.59896 -3.440494,2.75747 -5.683655,3.05435 -0.841147,0.0316 -1.683385,0.003 -2.524961,0.0109 -0.923054,5.3e-4 -1.846104,0.001 -2.769161,-5.2e-4 -0.964697,0.002 -1.929416,-0.002 -2.89411,-0.002 -1.185939,-0.004 -2.371863,-0.004 -3.557805,-0.005 -1.140843,5.3e-4 -2.281682,0.0105 -3.42252,0.002 -1.272939,-0.004 -2.545887,-0.003 -3.818829,-0.002 -1.190593,0.002 -2.381163,0.007 -3.571759,0.01 -0.984377,0.003 -1.969931,0.0156 -2.953093,-0.0426 -1.046764,-0.0765 -2.082853,-0.22483 -3.092353,-0.5232 -1.378727,-0.36066 -2.462315,-0.58036 -3.893028,-0.25019 -1.731987,0.25473 -3.460285,0.52631 -5.218758,0.41159 -1.758871,-5.3e-4 -3.518035,-0.004 -5.276649,0.0289 0,0 4.540326,-3.298741 4.540326,-3.298741 z"
       inkscape:connector-curvature="0"
       style="stroke-width:0.26458332" />
    <path
       id="path28"
       d="m 42.187733,110.50146 c -0.04949,1.81025 -0.04898,3.62177 -0.04837,5.43263 -0.0029,2.06784 0.0019,4.13568 0.0031,6.20353 0.0044,1.84103 -0.0011,3.68204 0.01429,5.52302 0.01405,1.14172 0.01691,2.28352 0.02302,3.4253 -0.0043,0.92935 0.0051,1.85868 7.94e-4,2.78802 0,0 -4.986242,2.54061 -4.986242,2.54061 v 0 c -0.0042,-0.92962 0.0052,-1.85924 7.94e-4,-2.78887 0.0061,-1.14959 0.009,-2.29921 0.02302,-3.44874 0.01524,-1.84584 0.0099,-3.69169 0.01429,-5.53757 0.0013,-2.06892 0.006,-4.13782 0.0031,-6.20673 5.29e-4,-1.79442 0.0016,-3.58954 -0.04837,-5.38334 0,0 5.000466,-2.54786 5.000466,-2.54786 z"
       inkscape:connector-curvature="0"
       style="stroke-width:0.26458332" />
    <path
       id="path30"
       d="m 37.774118,115.99747 c 2.221751,-1.51737 0.763338,-0.54065 5.951415,-3.51316 0.240464,-0.13778 0.978451,-0.52037 0.739434,-0.3801 -1.294974,0.75996 -5.214183,2.98063 -3.908219,2.23971 6.311776,-3.58086 3.65733,-2.24975 6.700115,-3.74501 2.237931,-0.8957 4.611889,-1.39949 6.994364,-1.72062 1.756503,-0.2014 3.524266,-0.23151 5.290018,-0.24704 1.279517,8e-4 2.559032,0.003 3.838549,0.004 0.952066,-0.002 1.904129,7.9e-4 2.856195,-1.5e-4 0.917562,0.001 1.835118,5.3e-4 2.75268,-10e-4 0.802114,0.0585 1.216673,0.41091 1.451589,1.16328 0.13381,0.61698 0.119848,1.25001 0.115144,1.87733 -0.01098,0.80167 -0.01992,1.60329 -0.02196,2.40505 -0.01347,0.93479 0.02458,1.87023 -0.0435,2.80294 -0.28402,1.69468 -1.074552,3.26742 -1.747356,4.83669 -1.042241,2.28049 -1.847723,4.65633 -2.74986,6.99333 -0.855014,2.05918 -1.466873,4.20576 -1.911461,6.38765 -0.243363,1.26183 -0.335232,2.54314 -0.364119,3.82553 -0.008,0.77091 -0.0055,1.54188 -5.29e-4,2.3128 0,0 -4.985602,2.54343 -4.985602,2.54343 v 0 c -0.0027,-0.77717 -0.01352,-1.55442 0.0016,-2.33153 0.03341,-1.32234 0.11983,-2.64287 0.382326,-3.9428 0.440878,-2.21869 1.0585,-4.40411 1.923253,-6.49712 0.905947,-2.33133 1.691828,-4.70919 2.711194,-6.99465 0.637331,-1.51801 1.363043,-3.03597 1.741331,-4.64031 0.09291,-0.91525 0.03763,-1.83565 0.05132,-2.75462 0.0027,-0.79986 5.29e-4,-1.59972 0.0064,-2.39955 0.0035,-0.5788 0.02212,-1.16112 -0.05118,-1.73662 -0.130267,-0.59774 -0.484206,-0.52283 -1.039653,-0.5589 -0.916493,-0.002 -1.832981,-0.002 -2.749471,-0.002 -0.948645,-0.002 -1.897293,-2.7e-4 -2.845911,-0.01 -1.270455,-0.008 -2.540934,-0.0233 -3.811424,-0.0161 -1.736939,0.01 -3.477357,0.051 -5.202258,0.27385 -2.351051,0.34901 -4.702218,0.8638 -6.874759,1.85402 -0.344331,0.17715 -1.363684,0.73291 -1.032991,0.53145 1.240787,-0.75592 5.029215,-2.91229 3.765163,-2.19596 -1.861174,1.05472 -3.701476,2.14588 -5.556617,3.21117 -0.242584,0.1393 -0.977244,0.54476 -0.736376,0.40251 4.681519,-2.76474 5.343232,-3.22509 3.576707,-2.03837 0,0 -5.215689,2.06017 -5.215689,2.06017 z"
       inkscape:connector-curvature="0"
       style="stroke-width:0.26458332" />
    <path
       id="path32"
       d="m 41.605715,138.8706 c 1.671905,0.0327 3.344246,0.0221 5.01636,0.0227 1.359797,-0.005 2.719591,-0.0102 4.079383,-0.0169 0.951317,-0.002 1.902661,-0.005 2.853981,-0.003 1.015727,-0.001 2.031431,0.004 3.047159,0.002 0.960778,-0.003 1.921552,-0.002 2.882331,-0.003 0.477247,0.002 0.954497,0.001 1.431745,7.9e-4 0,0 -4.526405,3.28863 -4.526405,3.28863 v 0 c -0.477924,-5.3e-4 -0.955852,-0.001 -1.433774,7.9e-4 -0.957688,-0.002 -1.915372,-2.6e-4 -2.873057,-0.003 -1.017932,-0.002 -2.03584,0.004 -3.053771,0.002 -0.94896,0.003 -1.897946,-0.001 -2.846903,-0.003 -1.344272,-0.007 -2.688545,-0.012 -4.032822,-0.0169 -1.692912,5.3e-4 -3.386029,-0.01 -5.07874,0.0226 0,0 4.534513,-3.29452 4.534513,-3.29452 z"
       inkscape:connector-curvature="0"
       style="stroke-width:0.26458332" />
    <path
       id="path34"
       d="m 102.54449,56.098034 c 2.38408,-0.737182 4.78466,-1.408411 7.20735,-2.012994 2.18626,-0.570701 4.43136,-0.812041 6.67972,-0.957924 1.18202,-0.07195 2.36651,-0.06819 3.55014,-0.06597 0.91349,0.0065 1.82701,0.0065 2.74052,0.01077 0.9202,8.4e-5 1.84039,7.93e-4 2.7606,0.0011 1.00364,-7.94e-4 2.00723,0.0039 3.01088,0.0019 1.09538,0.02852 2.1954,-0.06034 3.28518,0.06559 0.99659,0.08696 1.9677,0.297863 2.94821,0.482997 0.86102,0.336823 1.79806,0.35705 2.67843,0.601311 0.83439,0.197543 1.45442,0.83394 2.09459,1.364101 0.41384,0.523095 0.9135,0.737291 1.55311,0.833393 0.6166,0.06863 1.23779,0.05836 1.85709,0.05674 0,0 -4.54516,3.300786 -4.54516,3.300786 v 0 c -0.64509,-0.0044 -1.29394,-0.01363 -1.92688,-0.154398 -0.67873,-0.19055 -1.23285,-0.525936 -1.69743,-1.064951 -0.58249,-0.502155 -1.16283,-1.014174 -1.94842,-1.149254 -0.88815,-0.182245 -1.78231,-0.332912 -2.65479,-0.586775 -0.96103,-0.194212 -1.92607,-0.353496 -2.90372,-0.439817 -1.08601,-0.05553 -2.17444,-0.01521 -3.26153,-0.02477 -1.00538,-0.0021 -2.0107,0.0028 -3.01607,0.0019 -0.92032,2.64e-4 -1.84064,7.93e-4 -2.76096,-0.0024 -0.91369,5.29e-4 -1.82738,-0.0068 -2.74105,-0.01164 -1.15935,-0.0069 -2.31931,-0.0048 -3.47732,0.05977 -2.2084,0.141185 -4.40568,0.42132 -6.55043,0.985348 -1.37884,0.347425 -2.74864,0.704734 -4.10937,1.118431 -0.24843,0.07553 -2.054286,0.644742 -2.369349,0.719397 -0.304514,0.07216 -0.617482,0.102253 -0.926224,0.153382 0,0 4.522883,-3.286072 4.522883,-3.286072 z"
       inkscape:connector-curvature="0"
       style="stroke-width:0.26458332" />
    <path
       id="path36"
       d="m 116.64584,60.277467 c -0.0522,2.03958 -0.0529,4.08015 -0.0626,6.120273 -0.0112,2.500714 0.005,5.001392 0.0118,7.502083 0.0125,1.884566 0.008,3.769185 0.0218,5.653743 -0.0749,1.198576 -0.40776,2.356456 -0.58276,3.54125 -0.13468,1.097547 -0.14989,2.205016 -0.15896,3.309339 -0.0584,1.10888 -0.48403,2.116304 -0.90858,3.123049 -0.34874,0.874422 -0.51495,1.808861 -0.71481,2.725955 -0.12768,0.91059 -0.31141,1.811647 -0.46033,2.718879 -0.10509,0.973434 -0.28808,1.932895 -0.61917,2.854632 -0.36923,0.827783 -0.49071,1.725147 -0.71165,2.59566 -0.071,0.34535 -0.18005,0.67802 -0.30386,1.00715 0,0 -5.09875,2.36113 -5.09875,2.36113 v 0 c 0.12998,-0.31469 0.30228,-0.60915 0.34279,-0.95375 0.24628,-0.88464 0.35402,-1.79924 0.70218,-2.65447 0.002,-0.004 0.35352,-0.883142 0.35793,-0.899395 0.16144,-0.59418 0.21253,-1.236975 0.30885,-1.84291 0.11742,-0.922676 0.3648,-1.820728 0.44151,-2.749373 0.1938,-0.947912 0.39394,-1.902145 0.68063,-2.824472 0.39356,-0.963417 0.87157,-1.886262 1.01237,-2.934107 0.008,-1.123358 0.003,-2.249729 0.12134,-3.368326 0.14095,-1.182233 0.46225,-2.322285 0.65514,-3.495159 0.0133,-1.891956 0.009,-3.783976 0.0218,-5.675942 0.007,-2.50471 0.023,-5.009409 0.0118,-7.51414 -0.01,-2.018864 -0.01,-4.038193 -0.0626,-6.056495 0,0 4.99406,-2.544604 4.99406,-2.544604 z"
       inkscape:connector-curvature="0"
       style="stroke-width:0.26458332" />
    <path
       id="path38"
       d="m 100.16987,81.111827 c 1.88721,0.244951 3.78646,-0.198088 5.63011,-0.562456 2.47739,-0.61608 4.99805,-1.0096 7.53926,-1.229048 1.51627,-0.125188 3.03683,-0.171403 4.5577,-0.173752 1.4219,0.006 2.84378,0.01468 4.26569,0.01844 1.65478,0.01217 3.30957,0.0019 4.96436,0.0027 1.49163,-0.0026 2.98328,-0.0031 4.47491,-5.29e-4 1.42975,7.94e-4 2.8595,-0.0038 4.28925,-0.0049 1.06492,-0.0049 2.12982,-0.0073 3.19474,-0.0081 0.9325,-0.0021 1.865,-1.08e-4 2.7975,-0.0016 0.90208,7.93e-4 1.80416,5.29e-4 2.70625,-0.0011 0.86732,-0.0016 1.73463,0.0013 2.60196,2.65e-4 0.87627,0.02561 1.76836,-0.126992 2.59222,0.222094 0.74112,0.504319 0.77202,1.275133 0.54562,2.066951 -0.40875,1.007182 -1.23796,1.725369 -1.95567,2.508054 -1.10749,1.32992 -1.95346,2.855077 -2.74868,4.385339 -0.88153,1.62945 -1.69537,3.302143 -2.75622,4.824823 -0.74071,1.040498 -1.6752,1.930006 -2.31073,3.042428 -0.40659,0.867322 -0.42618,1.832739 -0.67744,2.745798 -0.0436,0.149926 -0.0873,0.29985 -0.13093,0.449773 0,0 -5.05535,2.397283 -5.05535,2.397283 v 0 c 0.0442,-0.15072 0.0885,-0.30145 0.13271,-0.45217 0.0163,-0.0517 0.26517,-0.83256 0.27652,-0.89534 0.11683,-0.64581 0.072,-1.328871 0.36588,-1.941419 0.52711,-1.218544 1.51464,-2.103387 2.30829,-3.14879 1.14547,-1.454597 1.93215,-3.13885 2.82452,-4.75311 0.76901,-1.557483 1.61206,-3.089997 2.64284,-4.490574 0.65598,-0.783551 1.45906,-1.431756 1.99616,-2.310498 0.22466,-0.436182 0.4801,-1.023234 -0.10417,-1.275464 -0.81077,-0.176659 -1.65299,-0.04417 -2.47607,-0.08358 -0.86763,-0.0011 -1.73525,0.0019 -2.60288,2.64e-4 -0.90122,-0.0016 -1.80244,-0.0016 -2.70366,-0.0011 -0.93096,-0.0016 -1.86191,2.64e-4 -2.79287,-0.0016 -1.05749,-7.93e-4 -2.11496,-0.0032 -3.17245,-0.0081 -1.42524,-0.0011 -2.85048,-0.0058 -4.27572,-0.0049 -1.49113,0.0026 -2.98228,0.0021 -4.47342,-7.94e-4 -1.65486,1.67e-4 -3.30972,-0.01082 -4.96459,-0.0037 -1.4288,-0.0016 -2.85762,-0.0038 -4.2864,7.94e-4 -1.48841,0.01058 -2.97775,0.03668 -4.46174,0.16256 -2.52358,0.24098 -5.02008,0.659879 -7.48497,1.258112 -1.926141,0.370396 -3.884621,0.764546 -5.85316,0.508246 0,0 4.58063,-3.241767 4.58063,-3.241767 z"
       inkscape:connector-curvature="0"
       style="stroke-width:0.26458332" />
    <path
       id="path40"
       d="m 98.259838,101.82682 c 1.509122,-0.43506 3.058162,-0.66902 4.599192,-0.95194 2.16997,-0.54228 4.40184,-0.69557 6.62775,-0.79702 3.72299,-0.106046 7.44838,-0.0648 11.17239,-0.0591 4.11978,0.003 8.23957,-0.001 12.35929,-0.02236 2.19733,-0.0087 4.39461,-0.02495 6.59187,-0.04301 0.79435,-0.0062 0.41077,-0.0034 1.15076,-0.0086 0,0 -4.51877,3.28305 -4.51877,3.28305 v 0 c -0.72524,-0.005 -0.34956,-0.002 -1.12706,-0.009 -2.15592,-0.0187 -4.31186,-0.0364 -6.46784,-0.0474 -4.09344,-0.026 -8.18697,-0.0377 -12.2805,-0.034 -3.76066,0.012 -7.5235,0.0129 -11.28137,0.17404 -2.23314,0.1387 -4.45697,0.36119 -6.637027,0.88948 -1.583404,0.28149 -3.145436,0.66803 -4.729012,0.92421 0,0 4.540327,-3.29874 4.540327,-3.29874 z"
       inkscape:connector-curvature="0"
       style="stroke-width:0.26458332" />
    <path
       id="path42"
       d="m 102.28275,115.83997 c -0.13135,2.37549 0.38689,4.71397 0.88749,7.0198 0.59243,2.97511 1.61373,5.83415 2.39381,8.75932 0.54568,2.03699 0.72231,4.138 0.83366,6.2354 0.064,1.35033 0.0436,2.70271 0.0351,4.05399 0.0486,1.29232 0.21399,2.57594 0.29874,3.86587 0.0646,0.97609 0.0774,1.95406 0.0832,2.93187 8e-4,0.15372 10e-4,0.30744 0.002,0.46117 0,0 -4.98589,2.54173 -4.98589,2.54173 v 0 c 6e-5,-0.15354 1.2e-4,-0.30708 1.8e-4,-0.46063 -0.004,-0.97043 -0.01,-1.9413 -0.055,-2.91084 -0.0742,-1.30448 -0.2013,-2.60439 -0.29864,-3.90717 0.004,-1.34728 0.0138,-2.69467 -0.004,-4.04188 -0.0568,-2.07338 -0.21056,-4.14879 -0.70569,-6.1704 -0.74073,-2.94529 -1.760684,-5.81353 -2.372933,-8.79287 -0.521078,-2.31775 -1.092851,-4.65098 -1.106016,-7.04076 0,0 4.994059,-2.5446 4.994059,-2.5446 z"
       inkscape:connector-curvature="0"
       style="stroke-width:0.26458332" />
    <path
       id="path44"
       d="m 107.30033,114.78579 c 2.2808,-0.79624 4.72044,-0.84318 7.0962,-1.12889 2.2275,-0.32317 4.47848,-0.4091 6.7166,-0.61319 0.27454,-0.025 2.77063,-0.33195 3.06303,-0.36766 2.35481,-0.32499 4.72532,-0.48623 7.0988,-0.58491 1.2973,-0.0479 2.59575,-0.0604 3.89384,-0.0582 0.9347,-5.3e-4 1.86939,0.002 2.80409,0.003 0.87839,-0.0565 1.53141,0.36317 1.9017,1.13376 0.30223,1.04264 0.20818,2.16344 0.20031,3.23786 -0.0117,1.75435 -0.0205,3.5087 -0.0297,5.26306 0.0156,2.24828 -0.097,4.4996 0.0618,6.74362 0.41511,2.01464 0.92905,3.9976 1.20808,6.0386 0.1768,1.39533 0.25073,2.80154 0.27297,4.20711 0.0143,0.95786 0.008,1.91578 0.004,2.87368 -0.001,0.44252 -5.3e-4,0.88504 -2.7e-4,1.32756 0,0 -4.99144,2.54225 -4.99144,2.54225 v 0 c 0.002,-0.44374 0.004,-0.88748 0.005,-1.33121 0.003,-0.95775 0.009,-1.91545 0.0127,-2.87319 -0.01,-1.39424 -0.03,-2.79033 -0.18759,-4.17745 -0.25481,-2.05722 -0.75271,-4.05688 -1.19079,-6.08012 -0.18864,-2.24987 -0.0696,-4.51088 -0.11156,-6.76704 -0.002,-1.74909 0.002,-3.49816 0.002,-5.24725 -0.008,-0.99433 0.0362,-2.01078 -0.15169,-2.99064 -0.26619,-0.62037 -0.92791,-0.63252 -1.53337,-0.61213 -0.93216,-0.001 -1.86429,-0.004 -2.79643,-0.009 -1.27584,-2.6e-4 -2.55188,-0.006 -3.82725,0.0371 -2.34036,0.0849 -4.67517,0.26649 -6.9986,0.56534 -3.25063,0.38 -6.51931,0.54755 -9.76567,0.97087 -2.40526,0.28867 -4.89254,0.39603 -7.14521,1.37388 0,0 4.38802,-3.47744 4.38802,-3.47744 z"
       inkscape:connector-curvature="0"
       style="stroke-width:0.26458332" />
    <path
       id="path46"
       d="m 98.292006,144.70649 c 2.889314,-1.57764 5.616584,-3.54 8.673474,-4.80648 1.11518,-0.46202 1.52562,-0.54911 2.68143,-0.88886 2.9464,-0.73885 5.99555,-0.78551 9.01449,-0.83953 3.33931,-0.0299 6.67592,-0.19626 10.01371,-0.29932 2.25232,-0.0686 4.5055,-0.0928 6.75861,-0.11679 1.02906,-0.007 2.05813,-0.0128 3.08722,-0.0169 0,0 -4.52483,3.28687 -4.52483,3.28687 v 0 c -1.01345,-0.006 -2.0269,-0.0135 -3.04037,-0.0137 -2.2214,-0.005 -4.4429,0.0128 -6.66377,0.0637 -3.33254,0.0824 -6.66277,0.24559 -9.99633,0.28301 -3.00502,0.0809 -6.04301,0.16637 -8.95725,0.98388 -1.33975,0.43097 -2.60289,0.90697 -3.85733,1.55074 -0.36973,0.18973 -1.45361,0.80578 -1.09637,0.59347 1.0355,-0.61538 5.55874,-3.22731 3.13003,-1.80593 0,0 -5.222714,2.02582 -5.222714,2.02582 z"
       inkscape:connector-curvature="0"
       style="stroke-width:0.26458332" />
  </g>
</svg>
